<mxfile host="app.diagrams.net" modified="2022-10-21T01:26:56.741Z" agent="5.0 (Windows NT 10.0; Win64; x64) AppleWebKit/537.36 (KHTML, like Gecko) Chrome/106.0.0.0 Safari/537.36" etag="xWdkVPX0iMGW9IM05Zbu" version="20.4.1" type="github">
  <diagram id="mIEYyF3ZTBgQa5WqSukr" name="第 1 页">
    <mxGraphModel dx="1422" dy="771" grid="0" gridSize="10" guides="1" tooltips="1" connect="1" arrows="1" fold="1" page="1" pageScale="1" pageWidth="827" pageHeight="1169" math="0" shadow="0">
      <root>
        <mxCell id="0" />
        <mxCell id="1" parent="0" />
        <mxCell id="vvyMrIEkQqv3X0J5vktZ-1" value="" style="rounded=0;whiteSpace=wrap;html=1;" vertex="1" parent="1">
          <mxGeometry x="200" y="320" width="160" height="40" as="geometry" />
        </mxCell>
        <mxCell id="vvyMrIEkQqv3X0J5vktZ-2" value="" style="endArrow=none;html=1;rounded=0;entryX=0.25;entryY=0;entryDx=0;entryDy=0;exitX=0.25;exitY=1;exitDx=0;exitDy=0;" edge="1" parent="1" source="vvyMrIEkQqv3X0J5vktZ-1" target="vvyMrIEkQqv3X0J5vktZ-1">
          <mxGeometry width="50" height="50" relative="1" as="geometry">
            <mxPoint x="220" y="440" as="sourcePoint" />
            <mxPoint x="270" y="390" as="targetPoint" />
          </mxGeometry>
        </mxCell>
        <mxCell id="vvyMrIEkQqv3X0J5vktZ-3" value="" style="endArrow=none;html=1;rounded=0;entryX=0.5;entryY=0;entryDx=0;entryDy=0;exitX=0.5;exitY=1;exitDx=0;exitDy=0;" edge="1" parent="1" source="vvyMrIEkQqv3X0J5vktZ-1" target="vvyMrIEkQqv3X0J5vktZ-1">
          <mxGeometry width="50" height="50" relative="1" as="geometry">
            <mxPoint x="210" y="450" as="sourcePoint" />
            <mxPoint x="260" y="400" as="targetPoint" />
          </mxGeometry>
        </mxCell>
        <mxCell id="vvyMrIEkQqv3X0J5vktZ-4" value="" style="endArrow=none;html=1;rounded=0;entryX=0.75;entryY=0;entryDx=0;entryDy=0;exitX=0.75;exitY=1;exitDx=0;exitDy=0;" edge="1" parent="1" source="vvyMrIEkQqv3X0J5vktZ-1" target="vvyMrIEkQqv3X0J5vktZ-1">
          <mxGeometry width="50" height="50" relative="1" as="geometry">
            <mxPoint x="240" y="500" as="sourcePoint" />
            <mxPoint x="290" y="450" as="targetPoint" />
          </mxGeometry>
        </mxCell>
        <mxCell id="vvyMrIEkQqv3X0J5vktZ-5" value="" style="rounded=0;whiteSpace=wrap;html=1;" vertex="1" parent="1">
          <mxGeometry x="360" y="320" width="160" height="40" as="geometry" />
        </mxCell>
        <mxCell id="vvyMrIEkQqv3X0J5vktZ-6" value="" style="endArrow=none;html=1;rounded=0;entryX=0.25;entryY=0;entryDx=0;entryDy=0;" edge="1" parent="1" target="vvyMrIEkQqv3X0J5vktZ-5">
          <mxGeometry width="50" height="50" relative="1" as="geometry">
            <mxPoint x="400" y="360" as="sourcePoint" />
            <mxPoint x="420" y="410" as="targetPoint" />
          </mxGeometry>
        </mxCell>
        <mxCell id="vvyMrIEkQqv3X0J5vktZ-7" value="" style="endArrow=none;html=1;rounded=0;entryX=0.5;entryY=0;entryDx=0;entryDy=0;exitX=0.5;exitY=1;exitDx=0;exitDy=0;" edge="1" parent="1" source="vvyMrIEkQqv3X0J5vktZ-5" target="vvyMrIEkQqv3X0J5vktZ-5">
          <mxGeometry width="50" height="50" relative="1" as="geometry">
            <mxPoint x="420" y="450" as="sourcePoint" />
            <mxPoint x="470" y="400" as="targetPoint" />
          </mxGeometry>
        </mxCell>
        <mxCell id="vvyMrIEkQqv3X0J5vktZ-8" value="" style="endArrow=none;html=1;rounded=0;entryX=0.75;entryY=0;entryDx=0;entryDy=0;" edge="1" parent="1" target="vvyMrIEkQqv3X0J5vktZ-5">
          <mxGeometry width="50" height="50" relative="1" as="geometry">
            <mxPoint x="480" y="360" as="sourcePoint" />
            <mxPoint x="520" y="390" as="targetPoint" />
          </mxGeometry>
        </mxCell>
        <mxCell id="vvyMrIEkQqv3X0J5vktZ-9" value="" style="endArrow=none;html=1;rounded=0;" edge="1" parent="1">
          <mxGeometry width="50" height="50" relative="1" as="geometry">
            <mxPoint x="180" y="310" as="sourcePoint" />
            <mxPoint x="620" y="310" as="targetPoint" />
          </mxGeometry>
        </mxCell>
        <mxCell id="vvyMrIEkQqv3X0J5vktZ-10" value="缓冲区" style="text;html=1;align=center;verticalAlign=middle;resizable=0;points=[];autosize=1;strokeColor=none;fillColor=none;" vertex="1" parent="1">
          <mxGeometry x="529" y="305" width="60" height="30" as="geometry" />
        </mxCell>
        <mxCell id="vvyMrIEkQqv3X0J5vktZ-11" value="视图" style="text;html=1;align=center;verticalAlign=middle;resizable=0;points=[];autosize=1;strokeColor=none;fillColor=none;" vertex="1" parent="1">
          <mxGeometry x="528" y="286" width="50" height="30" as="geometry" />
        </mxCell>
        <mxCell id="vvyMrIEkQqv3X0J5vktZ-12" value="" style="rounded=0;whiteSpace=wrap;html=1;" vertex="1" parent="1">
          <mxGeometry x="200" y="140" width="160" height="40" as="geometry" />
        </mxCell>
        <mxCell id="vvyMrIEkQqv3X0J5vktZ-13" value="" style="endArrow=none;html=1;rounded=0;entryX=0.25;entryY=0;entryDx=0;entryDy=0;exitX=0.25;exitY=1;exitDx=0;exitDy=0;" edge="1" parent="1" source="vvyMrIEkQqv3X0J5vktZ-12" target="vvyMrIEkQqv3X0J5vktZ-12">
          <mxGeometry width="50" height="50" relative="1" as="geometry">
            <mxPoint x="220" y="260" as="sourcePoint" />
            <mxPoint x="270" y="210" as="targetPoint" />
          </mxGeometry>
        </mxCell>
        <mxCell id="vvyMrIEkQqv3X0J5vktZ-14" value="" style="endArrow=none;html=1;rounded=0;entryX=0.5;entryY=0;entryDx=0;entryDy=0;exitX=0.5;exitY=1;exitDx=0;exitDy=0;" edge="1" parent="1" source="vvyMrIEkQqv3X0J5vktZ-12" target="vvyMrIEkQqv3X0J5vktZ-12">
          <mxGeometry width="50" height="50" relative="1" as="geometry">
            <mxPoint x="210" y="270" as="sourcePoint" />
            <mxPoint x="260" y="220" as="targetPoint" />
          </mxGeometry>
        </mxCell>
        <mxCell id="vvyMrIEkQqv3X0J5vktZ-15" value="" style="endArrow=none;html=1;rounded=0;entryX=0.75;entryY=0;entryDx=0;entryDy=0;exitX=0.75;exitY=1;exitDx=0;exitDy=0;" edge="1" parent="1" source="vvyMrIEkQqv3X0J5vktZ-12" target="vvyMrIEkQqv3X0J5vktZ-12">
          <mxGeometry width="50" height="50" relative="1" as="geometry">
            <mxPoint x="240" y="320" as="sourcePoint" />
            <mxPoint x="290" y="270" as="targetPoint" />
          </mxGeometry>
        </mxCell>
        <mxCell id="vvyMrIEkQqv3X0J5vktZ-16" value="" style="rounded=0;whiteSpace=wrap;html=1;" vertex="1" parent="1">
          <mxGeometry x="360" y="140" width="160" height="40" as="geometry" />
        </mxCell>
        <mxCell id="vvyMrIEkQqv3X0J5vktZ-17" value="" style="endArrow=none;html=1;rounded=0;entryX=0.25;entryY=0;entryDx=0;entryDy=0;" edge="1" parent="1" target="vvyMrIEkQqv3X0J5vktZ-16">
          <mxGeometry width="50" height="50" relative="1" as="geometry">
            <mxPoint x="400" y="180" as="sourcePoint" />
            <mxPoint x="420" y="230" as="targetPoint" />
          </mxGeometry>
        </mxCell>
        <mxCell id="vvyMrIEkQqv3X0J5vktZ-18" value="" style="endArrow=none;html=1;rounded=0;entryX=0.5;entryY=0;entryDx=0;entryDy=0;exitX=0.5;exitY=1;exitDx=0;exitDy=0;" edge="1" parent="1" source="vvyMrIEkQqv3X0J5vktZ-16" target="vvyMrIEkQqv3X0J5vktZ-16">
          <mxGeometry width="50" height="50" relative="1" as="geometry">
            <mxPoint x="420" y="270" as="sourcePoint" />
            <mxPoint x="470" y="220" as="targetPoint" />
          </mxGeometry>
        </mxCell>
        <mxCell id="vvyMrIEkQqv3X0J5vktZ-19" value="" style="endArrow=none;html=1;rounded=0;entryX=0.75;entryY=0;entryDx=0;entryDy=0;" edge="1" parent="1" target="vvyMrIEkQqv3X0J5vktZ-16">
          <mxGeometry width="50" height="50" relative="1" as="geometry">
            <mxPoint x="480" y="180" as="sourcePoint" />
            <mxPoint x="520" y="210" as="targetPoint" />
          </mxGeometry>
        </mxCell>
        <mxCell id="vvyMrIEkQqv3X0J5vktZ-20" value="" style="rounded=0;whiteSpace=wrap;html=1;" vertex="1" parent="1">
          <mxGeometry x="200" y="200" width="160" height="40" as="geometry" />
        </mxCell>
        <mxCell id="vvyMrIEkQqv3X0J5vktZ-22" value="" style="endArrow=none;html=1;rounded=0;entryX=0.5;entryY=0;entryDx=0;entryDy=0;exitX=0.5;exitY=1;exitDx=0;exitDy=0;" edge="1" parent="1" source="vvyMrIEkQqv3X0J5vktZ-20" target="vvyMrIEkQqv3X0J5vktZ-20">
          <mxGeometry width="50" height="50" relative="1" as="geometry">
            <mxPoint x="210" y="330" as="sourcePoint" />
            <mxPoint x="260" y="280" as="targetPoint" />
          </mxGeometry>
        </mxCell>
        <mxCell id="vvyMrIEkQqv3X0J5vktZ-24" value="" style="rounded=0;whiteSpace=wrap;html=1;" vertex="1" parent="1">
          <mxGeometry x="360" y="200" width="160" height="40" as="geometry" />
        </mxCell>
        <mxCell id="vvyMrIEkQqv3X0J5vktZ-26" value="" style="endArrow=none;html=1;rounded=0;entryX=0.5;entryY=0;entryDx=0;entryDy=0;exitX=0.5;exitY=1;exitDx=0;exitDy=0;" edge="1" parent="1" source="vvyMrIEkQqv3X0J5vktZ-24" target="vvyMrIEkQqv3X0J5vktZ-24">
          <mxGeometry width="50" height="50" relative="1" as="geometry">
            <mxPoint x="420" y="330" as="sourcePoint" />
            <mxPoint x="470" y="280" as="targetPoint" />
          </mxGeometry>
        </mxCell>
        <mxCell id="vvyMrIEkQqv3X0J5vktZ-28" value="" style="rounded=0;whiteSpace=wrap;html=1;" vertex="1" parent="1">
          <mxGeometry x="200" y="260" width="160" height="40" as="geometry" />
        </mxCell>
        <mxCell id="vvyMrIEkQqv3X0J5vktZ-32" value="" style="rounded=0;whiteSpace=wrap;html=1;" vertex="1" parent="1">
          <mxGeometry x="360" y="260" width="160" height="40" as="geometry" />
        </mxCell>
        <mxCell id="vvyMrIEkQqv3X0J5vktZ-36" value="int8Array" style="text;html=1;align=center;verticalAlign=middle;resizable=0;points=[];autosize=1;strokeColor=none;fillColor=none;" vertex="1" parent="1">
          <mxGeometry x="528" y="145" width="70" height="30" as="geometry" />
        </mxCell>
        <mxCell id="vvyMrIEkQqv3X0J5vktZ-37" value="int16Array" style="text;html=1;align=center;verticalAlign=middle;resizable=0;points=[];autosize=1;strokeColor=none;fillColor=none;" vertex="1" parent="1">
          <mxGeometry x="527" y="205" width="80" height="30" as="geometry" />
        </mxCell>
        <mxCell id="vvyMrIEkQqv3X0J5vktZ-38" value="float32Array" style="text;html=1;align=center;verticalAlign=middle;resizable=0;points=[];autosize=1;strokeColor=none;fillColor=none;" vertex="1" parent="1">
          <mxGeometry x="527" y="260" width="90" height="30" as="geometry" />
        </mxCell>
        <mxCell id="vvyMrIEkQqv3X0J5vktZ-40" value="" style="endArrow=classic;html=1;rounded=0;exitX=1.021;exitY=0.269;exitDx=0;exitDy=0;entryX=0;entryY=0;entryDx=0;entryDy=0;exitPerimeter=0;" edge="1" parent="1" source="vvyMrIEkQqv3X0J5vktZ-47" target="vvyMrIEkQqv3X0J5vktZ-1">
          <mxGeometry width="50" height="50" relative="1" as="geometry">
            <mxPoint x="144" y="343.5" as="sourcePoint" />
            <mxPoint x="234" y="382" as="targetPoint" />
          </mxGeometry>
        </mxCell>
        <mxCell id="vvyMrIEkQqv3X0J5vktZ-41" value="" style="shape=curlyBracket;whiteSpace=wrap;html=1;rounded=1;rotation=-90;" vertex="1" parent="1">
          <mxGeometry x="350" y="213" width="20" height="320" as="geometry" />
        </mxCell>
        <mxCell id="vvyMrIEkQqv3X0J5vktZ-44" value="byteLength" style="text;html=1;align=center;verticalAlign=middle;resizable=0;points=[];autosize=1;strokeColor=none;fillColor=none;" vertex="1" parent="1">
          <mxGeometry x="322" y="383" width="77" height="26" as="geometry" />
        </mxCell>
        <mxCell id="vvyMrIEkQqv3X0J5vktZ-45" value="byteOffset" style="text;html=1;align=center;verticalAlign=middle;resizable=0;points=[];autosize=1;strokeColor=none;fillColor=none;" vertex="1" parent="1">
          <mxGeometry x="219" y="385" width="72" height="26" as="geometry" />
        </mxCell>
        <mxCell id="vvyMrIEkQqv3X0J5vktZ-46" value="" style="endArrow=classic;html=1;rounded=0;exitX=0.903;exitY=0.115;exitDx=0;exitDy=0;exitPerimeter=0;entryX=0.75;entryY=1;entryDx=0;entryDy=0;" edge="1" parent="1" source="vvyMrIEkQqv3X0J5vktZ-45" target="vvyMrIEkQqv3X0J5vktZ-1">
          <mxGeometry width="50" height="50" relative="1" as="geometry">
            <mxPoint x="281" y="431" as="sourcePoint" />
            <mxPoint x="331" y="381" as="targetPoint" />
          </mxGeometry>
        </mxCell>
        <mxCell id="vvyMrIEkQqv3X0J5vktZ-47" value="&lt;span style=&quot;&quot;&gt;buffer&lt;/span&gt;" style="text;html=1;align=center;verticalAlign=middle;resizable=0;points=[];autosize=1;strokeColor=none;fillColor=none;" vertex="1" parent="1">
          <mxGeometry x="96" y="330" width="48" height="26" as="geometry" />
        </mxCell>
      </root>
    </mxGraphModel>
  </diagram>
</mxfile>
